<?xml version="1.0" encoding="utf-8"?>
<!-- Generator: Adobe Illustrator 23.0.4, SVG Export Plug-In . SVG Version: 6.00 Build 0)  -->
<svg version="1.1" id="Havas_logo" xmlns="http://www.w3.org/2000/svg" xmlns:xlink="http://www.w3.org/1999/xlink" x="0px" y="0px"
	 viewBox="0 0 212.1 44.1" style="enable-background:new 0 0 212.1 44.1;" xml:space="preserve">
<style type="text/css">
	.st0{fill:#007EA7;}
</style>
<path id="polygon2384" class="st0" d="M108.2,19.9L99.5,0H88.3l9,19.9H108.2z"/>
<path id="polygon2386" class="st0" d="M66.1,19.9l3.4-9.3l3.7,9.3H84L75.5,0H63.3l-7.8,19.9H66.1z"/>
<rect id="rect2388" x="31.3" y="0" class="st0" width="10" height="19.9"/>
<rect id="rect2390" y="0" class="st0" width="10" height="19.9"/>
<path id="path2392" class="st0" d="M205.9,19.9c-6.5-3.8-15.4-4.6-15.4-8.6c0-2.1,2.5-3.5,6.4-3.5c3.7,0,7.5,1.1,13.8,3.8V3.3
	c-4.6-2.1-9.6-3.2-14.7-3.3c-10.1,0-16.6,4.9-16.6,12.2c-0.1,2.8,0.9,5.5,2.7,7.7L205.9,19.9z"/>
<path id="polygon2394" class="st0" d="M123.6,19.9L132.4,0H121l-8.5,19.9H123.6z"/>
<path id="polygon2396" class="st0" d="M147.3,19.9l3.4-9.3l3.7,9.3h10.7L156.6,0h-12.2l-7.8,19.9H147.3z"/>
<path id="polygon2398" class="st0" d="M135.6,25.6l-7.4,18.5h11.5l7-18.5H135.6z"/>
<path id="polygon2400" class="st0" d="M158,25.6l7.4,18.5h11.1l-7.8-18.5H158z"/>
<path id="polygon2402" class="st0" d="M99.7,25.6l9.2,18.5h4.8l8.8-18.5H99.7z"/>
<path id="path2404" class="st0" d="M190.3,25.6c5.5,2.2,11.1,3.3,11.1,6.8c0,2.5-2.2,3.9-6.2,3.9c-4.6,0-8.3-1.4-14.4-5.5v9.1
	c4.2,2.2,7.8,4.1,15.2,4.1c9.4,0,16.1-4.7,16.1-12.8c0-2-0.4-3.9-1.3-5.7H190.3z"/>
<rect id="rect2406" x="31.3" y="25.6" class="st0" width="10" height="18.5"/>
<rect id="rect2408" y="25.6" class="st0" width="10" height="18.5"/>
<path id="polygon2410" class="st0" d="M53,25.6l-7.4,18.5H57l7-18.5H53z"/>
<path id="polygon2412" class="st0" d="M75.4,25.6l7.4,18.5H94l-7.8-18.5H75.4z"/>
</svg>
