<svg id="Havas_logo" xmlns="http://www.w3.org/2000/svg" width="212.112" height="44.131" viewBox="0 0 212.112 44.131">
  <path id="polygon2384" d="M19.93,19.93,11.233,0H0L8.99,19.93Z" transform="translate(88.261 0)" fill="#fff"/>
  <path id="polygon2386" d="M10.617,19.93l3.4-9.266,3.731,9.266H28.471L19.94,0H7.751L0,19.93Z" transform="translate(55.519 0)" fill="#fff"/>
  <rect id="rect2388" width="9.965" height="19.93" transform="translate(31.319 0)" fill="#fff"/>
  <rect id="rect2390" width="9.965" height="19.93" transform="translate(0 0)" fill="#fff"/>
  <path id="path2392" d="M26.552,19.93c-6.518-3.784-15.382-4.558-15.382-8.628,0-2.128,2.476-3.5,6.376-3.5,3.7,0,7.471,1.066,13.772,3.813V3.3A36.2,36.2,0,0,0,16.6,0C6.5,0,0,4.861,0,12.235a11.44,11.44,0,0,0,2.654,7.7Z" transform="translate(179.37 0)" fill="#fff"/>
  <path id="polygon2394" d="M11.1,19.93,19.93,0H8.514L0,19.93Z" transform="translate(112.462 0)" fill="#fff"/>
  <path id="polygon2396" d="M10.632,19.93l3.4-9.266,3.723,9.266H28.471L19.943,0H7.756L0,19.93Z" transform="translate(136.663 0)" fill="#fff"/>
  <path id="polygon2398" d="M7.441,0,0,18.506H11.476L18.506,0Z" transform="translate(128.121 25.624)" fill="#fff"/>
  <path id="polygon2400" d="M0,0,7.364,18.506H18.506L10.682,0Z" transform="translate(158.016 25.624)" fill="#fff"/>
  <path id="polygon2402" d="M0,0,9.211,18.506h4.767L22.777,0Z" transform="translate(99.65 25.624)" fill="#fff"/>
  <path id="path2404" d="M9.467,0c5.469,2.233,11.066,3.3,11.066,6.848,0,2.492-2.165,3.919-6.166,3.919C9.737,10.767,6.046,9.341,0,5.306v9.123c4.2,2.16,7.84,4.077,15.177,4.077,9.361,0,16.142-4.71,16.142-12.822A11.675,11.675,0,0,0,29.976,0Z" transform="translate(180.793 25.624)" fill="#fff"/>
  <rect id="rect2406" width="9.965" height="18.506" transform="translate(31.319 25.624)" fill="#fff"/>
  <rect id="rect2408" width="9.965" height="18.506" transform="translate(0 25.624)" fill="#fff"/>
  <path id="polygon2410" d="M7.449,0,0,18.506H11.48L18.506,0Z" transform="translate(45.554 25.624)" fill="#fff"/>
  <path id="polygon2412" d="M0,0,7.369,18.506H18.506L10.68,0Z" transform="translate(75.449 25.624)" fill="#fff"/>
</svg>
