<?xml version="1.0" encoding="UTF-8"?>
<!-- Generator: Adobe Illustrator 24.0.2, SVG Export Plug-In . SVG Version: 6.00 Build 0)  -->
<svg version="1.1" id="Capa_1" xmlns="http://www.w3.org/2000/svg" xmlns:xlink="http://www.w3.org/1999/xlink" x="0px" y="0px" viewBox="0 0 266.4 80" style="enable-background:new 0 0 266.4 80;" xml:space="preserve">
<style type="text/css">
	.st0{fill:#017EA7;}
	.st1{opacity:0.4;fill:#017EA7;}
	.st2{opacity:0.6;fill:#017EA7;}
</style>
<title>logos</title>
<path class="st0" d="M18.9,65.7c-0.1,1.3,0.8,2.4,2,2.6c0,0,0.1,0,0.1,0c1,0,1.9-0.7,2-1.7h0.8c-0.2,1.4-1.4,2.4-2.8,2.3  c-2.1,0-2.9-1.6-2.9-3.4S19,62,21.1,62s2.9,1.8,2.9,3.7H18.9z M23.1,65c0.1-1.2-0.8-2.2-2-2.3c0,0,0,0,0,0c-1.2,0.1-2.1,1.1-2.1,2.3  H23.1z"/>
<path class="st0" d="M27.2,65.3l-2.3-3.1h1l1.9,2.5l1.8-2.5h1l-2.3,3.1l2.5,3.4h-1l-2-2.7l-2,2.7h-1L27.2,65.3z"/>
<path class="st0" d="M31.9,62.2h0.7v1.2l0,0c0.4-0.9,1.3-1.5,2.3-1.4c2,0,2.9,1.6,2.9,3.4s-1,3.4-2.9,3.4c-1,0-1.9-0.5-2.3-1.4l0,0  v3.7h-0.8L31.9,62.2z M34.9,62.7c-1.8,0-2.3,1.3-2.3,2.8c0,1.5,0.6,2.8,2.3,2.8c1.5,0,2.1-1.4,2.1-2.8S36.5,62.7,34.9,62.7z"/>
<path class="st0" d="M45.3,65.4c0,1.9-1.1,3.4-3.1,3.4s-3.1-1.6-3.1-3.4s1.1-3.4,3.1-3.4S45.3,63.6,45.3,65.4z M40,65.4  c0,1.4,0.8,2.8,2.3,2.8s2.3-1.4,2.3-2.8s-0.8-2.8-2.3-2.8S40,64.1,40,65.4L40,65.4z"/>
<path class="st0" d="M46.9,62.2h0.8v1.1l0,0c0.4-0.8,1.2-1.4,2.1-1.3c1.8,0,2.4,1,2.4,2.5v4.2h-0.8v-4.1c0-1.1-0.4-2-1.7-2  c-1.1,0-2,1-2,2.1c0,0,0,0.1,0,0.1v3.8h-0.8L46.9,62.2z"/>
<path class="st0" d="M54.5,65.7c-0.1,1.3,0.8,2.4,2,2.6c0,0,0.1,0,0.1,0c1,0,1.8-0.7,2-1.7h0.8C59.3,68,58,69,56.6,68.9  c-2.1,0-2.9-1.6-2.9-3.4s0.9-3.5,3-3.5s2.9,1.8,2.9,3.7H54.5z M58.7,65c0.1-1.2-0.8-2.2-2.1-2.3c0,0,0,0,0,0  c-1.2,0.1-2.2,1.1-2.1,2.3H58.7z"/>
<path class="st0" d="M61,62.2h0.8v1.1l0,0c0.4-0.8,1.2-1.4,2.1-1.3c1.8,0,2.4,1,2.4,2.5v4.2h-0.8v-4.1c0-1.1-0.4-2-1.7-2  c-1.1,0-2,1-2,2.1c0,0,0,0.1,0,0.1v3.8H61V62.2z"/>
<path class="st0" d="M69.4,62.2h1.3v0.7h-1.3v4.4c0,0.5,0.1,0.8,0.6,0.9c0.2,0,0.5,0,0.7,0v0.7h-0.7c-1.1,0-1.4-0.3-1.4-1.5v-4.5  h-1.1v-0.7h1.1v-2h0.8V62.2z"/>
<path class="st0" d="M72.3,59.7h0.8V61h-0.8V59.7z M72.3,62.2h0.8v6.5h-0.8V62.2z"/>
<path class="st0" d="M74.9,64.2c0.1-1.5,1.1-2.2,2.6-2.2c1.2,0,2.4,0.4,2.4,2.1v3.5c0,0.2,0.1,0.5,0.4,0.5c0,0,0.1,0,0.1,0  c0.1,0,0.2,0,0.2,0v0.7c-0.2,0-0.3,0-0.5,0c-0.8,0-0.9-0.4-0.9-1.1l0,0c-0.5,0.9-1.4,1.4-2.4,1.3c-1.2,0-2.2-0.6-2.2-1.9  c0-1.8,1.8-1.9,3.5-2.1c0.7-0.1,1-0.2,1-0.9c0-1.1-0.8-1.3-1.7-1.3s-1.7,0.5-1.7,1.5L74.9,64.2z M79.2,65.2L79.2,65.2  c-0.1,0.2-0.5,0.3-0.7,0.3c-1.3,0.2-3,0.2-3,1.5c0,0.8,0.7,1.3,1.4,1.3c0,0,0,0,0,0c1.1,0.1,2.2-0.8,2.3-1.9c0,0,0-0.1,0-0.1  L79.2,65.2z"/>
<path class="st0" d="M82,59.7h0.8v9H82V59.7z"/>
<path class="st0" d="M94.1,68.2c0,1.9-0.8,3.1-2.9,3.1c-1.3,0-2.6-0.6-2.7-2h0.8c0.2,0.9,1,1.4,1.9,1.3c1.5,0,2.1-0.9,2.1-2.5v-0.9  l0,0c-0.4,0.8-1.2,1.3-2.1,1.3c-2.1,0-2.9-1.5-2.9-3.3s1-3.3,2.9-3.3c0.9,0,1.7,0.5,2.1,1.3l0,0v-1.1h0.8L94.1,68.2z M93.3,65.4  c0-1.3-0.6-2.7-2.1-2.7S89,64,89,65.4s0.7,2.6,2.2,2.6S93.3,66.7,93.3,65.4z"/>
<path class="st0" d="M96,62.2h0.7v1.5l0,0c0.4-1,1.4-1.7,2.5-1.6v0.8c-1.2-0.1-2.3,0.8-2.4,2c0,0.1,0,0.2,0,0.3v3.5H96V62.2z"/>
<path class="st0" d="M106.2,65.4c0,1.9-1.1,3.4-3.1,3.4s-3.1-1.6-3.1-3.4s1.1-3.4,3.1-3.4S106.2,63.6,106.2,65.4z M100.8,65.4  c0,1.4,0.8,2.8,2.3,2.8s2.3-1.4,2.3-2.8s-0.8-2.8-2.3-2.8S100.8,64.1,100.8,65.4z"/>
<path class="st0" d="M107.1,62.2h0.9l1.7,5.6l0,0l1.6-5.6h0.9l1.6,5.6l0,0l1.7-5.6h0.8l-2.1,6.5h-0.9l-1.6-5.5l0,0l-1.6,5.5h-0.9  L107.1,62.2z"/>
<path class="st0" d="M118.8,62.2h1.3v0.7h-1.3v4.4c0,0.5,0.1,0.8,0.6,0.9c0.2,0,0.5,0,0.7,0v0.7h-0.7c-1.1,0-1.4-0.3-1.4-1.5v-4.5  h-1.1v-0.7h1.2v-2h0.8L118.8,62.2z"/>
<path class="st0" d="M121.6,59.7h0.8v3.6l0,0c0.4-0.8,1.2-1.4,2.1-1.3c1.8,0,2.4,1,2.4,2.5v4.2h-0.8v-4.1c0-1.1-0.4-2-1.7-2  c-1.1,0-2,1-2,2.1c0,0,0,0.1,0,0.1v3.8h-0.8L121.6,59.7z"/>
<path class="st0" d="M132.7,62.2h0.7v1.2l0,0c0.4-0.9,1.3-1.5,2.4-1.4c2,0,2.9,1.6,2.9,3.4s-0.9,3.4-2.9,3.4c-1,0.1-1.9-0.5-2.3-1.4  l0,0v3.7h-0.8L132.7,62.2z M135.8,62.7c-1.8,0-2.3,1.3-2.3,2.8c0,1.5,0.6,2.8,2.3,2.8c1.5,0,2.1-1.4,2.1-2.8S137.3,62.7,135.8,62.7z  "/>
<path class="st0" d="M146.2,65.4c0,1.9-1.1,3.4-3.1,3.4s-3.1-1.6-3.1-3.4s1.1-3.4,3.1-3.4S146.2,63.6,146.2,65.4z M140.8,65.4  c0,1.4,0.8,2.8,2.3,2.8s2.3-1.4,2.3-2.8s-0.8-2.8-2.3-2.8S140.8,64.1,140.8,65.4z"/>
<path class="st0" d="M147.1,62.2h0.9l1.7,5.6l0,0l1.6-5.6h0.9l1.6,5.6l0,0l1.7-5.6h0.8l-2.1,6.5h-0.9l-1.6-5.5l0,0l-1.6,5.5h-0.9  L147.1,62.2z"/>
<path class="st0" d="M158,65.7c0,1.2,0.6,2.6,2.1,2.6c1,0,1.8-0.7,2-1.7h0.8c-0.2,1.4-1.4,2.4-2.8,2.3c-2.1,0-2.9-1.6-2.9-3.4  s0.9-3.5,2.9-3.5s2.9,1.8,2.9,3.7H158z M162.2,65c0.1-1.2-0.8-2.2-2.1-2.3c0,0,0,0,0,0c-1.2,0.1-2.2,1.1-2.1,2.3L162.2,65z"/>
<path class="st0" d="M164.4,62.2h0.7v1.5l0,0c0.4-1,1.4-1.7,2.5-1.6v0.8c-1.2-0.1-2.3,0.8-2.4,2c0,0.1,0,0.2,0,0.3v3.5h-0.8  L164.4,62.2z"/>
<path class="st0" d="M169.3,65.7c-0.1,1.3,0.8,2.4,2.1,2.6c0,0,0.1,0,0.1,0c1,0,1.8-0.7,2-1.7h0.8c-0.2,1.4-1.4,2.4-2.8,2.3  c-2.1,0-2.9-1.6-2.9-3.4s0.9-3.5,3-3.5s2.9,1.8,2.9,3.7H169.3z M173.5,65c0.1-1.2-0.9-2.3-2.1-2.3c-1.2,0.1-2.2,1.1-2.1,2.3  L173.5,65z"/>
<path class="st0" d="M181.4,68.7h-0.7v-1.2l0,0c-0.4,0.9-1.3,1.4-2.3,1.4c-2,0-2.9-1.6-2.9-3.4s0.9-3.5,2.9-3.5c1,0,1.9,0.5,2.3,1.4  l0,0v-3.7h0.8L181.4,68.7z M178.4,68.2c1.7,0,2.3-1.4,2.3-2.8s-0.6-2.8-2.3-2.8c-1.5,0-2.1,1.4-2.1,2.8S176.9,68.2,178.4,68.2z"/>
<path class="st0" d="M187.3,59.7h0.8v3.7l0,0c0.4-0.9,1.3-1.5,2.3-1.4c2,0,2.9,1.6,2.9,3.4s-0.9,3.4-2.9,3.4c-1,0.1-1.9-0.5-2.3-1.4  l0,0v1.2h-0.7L187.3,59.7z M190.3,62.7c-1.7,0-2.3,1.4-2.3,2.8s0.6,2.8,2.3,2.8c1.5,0,2.1-1.4,2.1-2.8S191.9,62.7,190.3,62.7  L190.3,62.7z"/>
<path class="st0" d="M194.2,62.2h0.8l2.1,5.6l2-5.6h0.9l-2.8,7.5c-0.5,1.1-0.7,1.4-1.7,1.4c-0.2,0-0.4,0-0.6-0.1v-0.7  c0.2,0,0.4,0.1,0.6,0.1c0.7,0,0.9-0.4,1.1-1l0.3-0.7L194.2,62.2z"/>
<path class="st0" d="M204.9,59.7h1.4V63l0,0c0.4-0.6,1.2-1,1.9-1c1.1-0.1,2.2,0.7,2.3,1.8c0,0.1,0,0.3,0,0.4v4.5h-1.4v-4.1  c0-1-0.4-1.5-1.3-1.5c-0.9,0-1.6,0.7-1.6,1.6c0,0,0,0.1,0,0.1v3.8h-1.4L204.9,59.7z"/>
<path class="st0" d="M217.5,67.3c0,0.4,0.1,0.5,0.3,0.5c0.1,0,0.2,0,0.4,0v1c-0.3,0.1-0.6,0.1-0.9,0.2c-0.6,0-1-0.2-1.1-0.8  c-0.6,0.5-1.4,0.8-2.3,0.8c-1.1,0.1-2.1-0.6-2.2-1.7c0-0.1,0-0.1,0-0.2c0-1.6,1.3-1.9,2.5-2c1-0.2,1.9-0.1,1.9-0.9s-0.8-0.9-1.4-0.9  c-0.8,0-1.4,0.3-1.4,1H212c0.1-1.7,1.5-2.2,3-2.2c1.3,0,2.6,0.5,2.6,1.9L217.5,67.3z M216.1,65.4c-0.6,0.2-1.2,0.4-1.8,0.4  c-0.6,0.1-1.2,0.3-1.2,1.1s0.8,0.8,1.3,0.8s1.6-0.3,1.6-1.2L216.1,65.4z"/>
<path class="st0" d="M218.4,62.2h1.6l1.6,5l0,0l1.6-5h1.5l-2.3,6.5h-1.6L218.4,62.2z"/>
<path class="st0" d="M231,67.3c0,0.4,0.1,0.5,0.3,0.5c0.1,0,0.2,0,0.4,0v1c-0.3,0.1-0.6,0.1-0.9,0.2c-0.6,0-1-0.2-1.1-0.8  c-0.6,0.5-1.4,0.8-2.3,0.8c-1.1,0.1-2.1-0.6-2.2-1.7c0-0.1,0-0.1,0-0.2c0-1.6,1.3-1.9,2.5-2c1-0.2,2-0.1,2-0.9s-0.8-0.9-1.4-0.9  c-0.8,0-1.4,0.3-1.4,1h-1.4c0.1-1.7,1.5-2.2,3-2.2c1.3,0,2.6,0.5,2.6,1.9L231,67.3z M229.6,65.4c-0.6,0.2-1.2,0.4-1.8,0.4  c-0.6,0.1-1.2,0.3-1.2,1.1s0.8,0.8,1.3,0.8s1.6-0.3,1.6-1.2L229.6,65.4z"/>
<path class="st0" d="M233.6,66.6c0.1,0.8,0.7,1.1,1.5,1.1c0.5,0,1.5-0.1,1.4-0.9s-1.1-0.8-2.1-1.1s-2.1-0.6-2.1-1.9s1.5-1.9,2.7-1.9  s2.5,0.6,2.7,2h-1.5c-0.1-0.7-0.7-0.9-1.3-0.9c-0.4,0-1.2,0.1-1.2,0.7c0,0.6,1.1,0.8,2.1,1s2.1,0.6,2.1,1.9c0,1.6-1.6,2.1-2.9,2.1  c-1.6,0-2.9-0.7-2.9-2.3L233.6,66.6z"/>
<path class="st0" d="M29.5,27.1H35V31l0.1,0.1c1.7-2.9,4.8-4.7,8.2-4.7c5.7,0,9.3,3,9.3,8.9v18h-5.8V36.8C46.7,32.7,45,31,41.6,31  c-3.8,0-6.3,3-6.3,6.9v15.4h-5.8V27.1z"/>
<path class="st0" d="M54.5,27.1h4.3v-7.9h5.8v7.9h5.2v4.3h-5.2v14c0,2.4,0.2,3.6,2.8,3.6c0.8,0,1.6,0,2.4-0.2v4.5  c-1.3,0.1-2.5,0.3-3.8,0.3c-6,0-7.1-2.3-7.2-6.7V31.4h-4.4V27.1z"/>
<path class="st0" d="M77,41.7c0,4.1,2.2,7.8,7,7.8c3.3,0,5.4-1.5,6.4-4.3h5.5c-1.2,5.7-6.1,8.9-11.8,8.9c-8.2,0-12.8-5.7-12.8-13.8  c0-7.5,4.9-13.8,12.7-13.8c8.3,0,13.3,7.4,12.3,15.3L77,41.7z M90.5,37.9c-0.2-3.6-2.7-6.9-6.6-6.9s-6.7,3-6.9,6.9H90.5z"/>
<path class="st0" d="M99.4,17.1h5.8v36.2h-5.8V17.1z"/>
<path class="st0" d="M110.1,17.1h5.8v36.2h-5.8V17.1z"/>
<path class="st0" d="M120.8,17.1h5.8v5.5h-5.8V17.1z M120.8,27.1h5.8v26.1h-5.8V27.1z"/>
<path class="st0" d="M29.6,27.1h5.5v3.8l0.1,0.1c1.7-2.9,4.8-4.7,8.1-4.7c5.7,0,9.3,3,9.3,8.9v18h-5.8V36.8  c-0.1-4.1-1.7-5.9-5.1-5.9c-3.8,0-6.3,3-6.3,6.9v15.5h-5.8V27.1z"/>
<path class="st0" d="M54.6,27.1h4.3v-7.9h5.8v7.9h5.2v4.3h-5.2v14c0,2.4,0.2,3.6,2.8,3.6c0.8,0,1.6,0,2.4-0.2v4.5  c-1.3,0.1-2.5,0.3-3.8,0.3c-6,0-7.1-2.3-7.2-6.7V31.4h-4.4V27.1z"/>
<path class="st0" d="M77.1,41.7c0,4.1,2.2,7.8,7,7.8c3.3,0,5.4-1.5,6.4-4.4H96c-1.3,5.7-6.2,8.9-11.9,8.9c-8.2,0-12.8-5.7-12.8-13.8  c0-7.4,4.9-13.8,12.7-13.8c8.3,0,13.3,7.4,12.3,15.3L77.1,41.7z M90.6,37.9c-0.2-3.6-2.7-6.9-6.6-6.9s-6.7,3-6.9,6.9H90.6z"/>
<path class="st0" d="M99.4,17.1h5.8v36.2h-5.8V17.1z"/>
<path class="st0" d="M110.2,17.1h5.8v36.2h-5.8V17.1z"/>
<path class="st0" d="M120.9,17.1h5.8v5.5h-5.8V17.1z M120.9,27.1h5.8v26.2h-5.8V27.1z"/>
<rect x="18.6" y="17.3" class="st1" width="5.8" height="5.5"/>
<rect x="12.8" y="27.1" class="st2" width="5.8" height="5.5"/>
<rect x="18.6" y="27.1" class="st0" width="5.8" height="26.2"/>
<path class="st0" d="M160.4,27.2h5.5v3.9l0.1,0.1c1.7-2.9,4.8-4.7,8.2-4.6c5.7,0,9.3,3,9.3,8.9v18h-5.8V36.9  c-0.1-4.1-1.7-5.9-5.1-5.9c-3.9,0-6.3,3-6.3,6.9v15.4h-5.8V27.2z"/>
<path class="st0" d="M186.8,40.3c0-8,4.8-13.8,13.2-13.8s13.2,5.8,13.2,13.8s-4.8,13.8-13.2,13.8S186.8,48.3,186.8,40.3z   M207.4,40.3c0-4.5-2.3-9.2-7.4-9.2s-7.4,4.7-7.4,9.2s2.3,9.3,7.4,9.3S207.4,44.8,207.4,40.3z"/>
<path class="st0" d="M220.9,45c0.3,3.3,2.8,4.6,5.9,4.6c2.2,0,6-0.5,5.8-3.5s-4.4-3.4-8.6-4.3s-8.4-2.4-8.4-7.8  c0-5.7,6.2-7.5,10.9-7.5c5.4,0,10.2,2.2,10.9,8h-6c-0.5-2.7-2.8-3.5-5.3-3.5c-1.7,0-4.8,0.4-4.8,2.7c0,2.8,4.3,3.2,8.5,4.2  s8.5,2.5,8.5,7.7c0,6.2-6.3,8.5-11.7,8.5c-6.6,0-11.5-2.9-11.6-9.1L220.9,45z"/>
<rect x="240" y="20" class="st1" width="3.6" height="7.1"/>
<rect x="240" y="9.4" class="st2" width="3.6" height="7.1"/>
<polygon class="st0" points="240,16.5 240,20 247.1,20 247.1,27.1 250.6,27.1 250.6,20 250.6,16.5 "/>
<path class="st0" d="M155.3,38.2v15.2h-3.5l-0.6-2.7c-1.9,2.2-4.7,3.4-7.6,3.3c-7.5,0-12.7-5.7-12.7-13.8s5.2-13.8,12.7-13.8  c5.8,0,10,3,11.1,7.8c0,0.1,0.1,0.5,0.1,0.6h-5.1l-0.2-0.5c-0.8-2.2-3.1-3.6-6-3.6c-5.5,0-7.5,5.1-7.5,9.5s2,9.5,7.5,9.5  s6.8-4.3,6.9-8h-6.9v-3.4L155.3,38.2z"/>
</svg>